<svg xmlns="http://www.w3.org/2000/svg" xmlns:xlink="http://www.w3.org/1999/xlink" width="500" zoomAndPan="magnify" viewBox="0 0 375 374.999991" height="500" preserveAspectRatio="xMidYMid meet" version="1.0"><defs><g/><clipPath id="8b6814c760"><path d="M 73.070312 169.195312 L 100.820312 169.195312 L 100.820312 196.945312 L 73.070312 196.945312 Z M 73.070312 169.195312 " clip-rule="nonzero"/></clipPath></defs><g clip-path="url(#8b6814c760)"><path fill="#000000" d="M 82.34375 189.667969 C 82.382812 189.773438 82.480469 190.136719 82.484375 190.136719 C 83.730469 190.160156 84.871094 190.003906 86.0625 189.960938 C 86.945312 189.929688 89.03125 190.015625 89.71875 189.851562 L 82.347656 189.667969 Z M 86.945312 194.988281 C 80.363281 194.988281 75.027344 189.652344 75.027344 183.070312 C 75.027344 176.484375 80.363281 171.148438 86.945312 171.148438 C 91.921875 171.148438 96.1875 174.203125 97.972656 178.535156 C 97.898438 178.367188 97.828125 178.195312 97.746094 178.03125 C 97.285156 177.367188 97.832031 178.558594 96.921875 177.089844 L 96.191406 175.863281 C 96.085938 175.617188 96.152344 175.636719 95.953125 175.449219 C 95.550781 175.074219 94.277344 175.117188 93.703125 175.207031 C 93.371094 175.433594 93.125 175.917969 92.820312 176.214844 C 92.625 176.398438 92.53125 176.503906 92.332031 176.703125 C 92.183594 176.851562 92.0625 177.011719 91.957031 177.183594 C 92.238281 177.207031 92.257812 177.148438 92.429688 177.3125 C 91.511719 176.996094 90.558594 178.242188 90.042969 178.464844 C 90.382812 178.761719 90.414062 178.625 90.589844 179.117188 C 90.628906 179.070312 91.003906 178.824219 91.148438 178.707031 C 91.332031 178.558594 91.472656 178.421875 91.703125 178.273438 C 90.617188 179.34375 90.21875 179.546875 89.980469 181.074219 C 90.460938 180.980469 90.636719 181.09375 90.9375 181.285156 L 93.402344 178.035156 L 91.773438 180.507812 C 90.886719 181.789062 91.082031 181.289062 91.195312 182.085938 C 90.972656 181.707031 90.429688 180.96875 89.90625 181.257812 C 89.109375 181.273438 81.601562 181.308594 81.363281 181.429688 C 81.054688 181.585938 81.136719 182.152344 81.035156 182.523438 C 80.914062 182.960938 80.792969 183.226562 80.722656 183.714844 C 80.34375 186.34375 81.203125 189.546875 82.722656 191.679688 C 83 192.070312 83.121094 192.15625 83.746094 192.191406 L 83.472656 191.601562 L 84.714844 191.613281 C 85.089844 191.941406 84.9375 192.3125 85.839844 192.21875 L 85.566406 191.640625 L 86.84375 191.667969 C 87.164062 192.058594 87.234375 192.335938 87.988281 192.277344 L 87.722656 191.695312 L 88.949219 191.71875 C 89.125 192.101562 89.40625 192.382812 90.023438 192.332031 L 89.769531 191.746094 C 90.15625 191.753906 90.796875 191.648438 91.015625 191.914062 C 91.375 192.347656 91.195312 192.359375 92.007812 192.398438 C 92.070312 191.210938 91.625 189.015625 91.796875 187.761719 C 92.824219 181.628906 92.3125 184.558594 91.207031 182.128906 C 91.632812 182.816406 91.457031 182.5 91.941406 182.960938 C 91.941406 182.863281 93.410156 181.433594 93.480469 181.363281 C 93.601562 181.246094 93.675781 181.15625 93.796875 181.03125 C 94.160156 180.652344 94.839844 180 95.109375 179.613281 C 95.039062 179.460938 94.890625 179.324219 94.777344 179.171875 C 94.484375 178.789062 93.882812 177.910156 94.984375 177.9375 C 94.550781 178.234375 94.378906 178.34375 94.789062 178.898438 C 94.996094 179.175781 95.328125 179.453125 95.566406 179.683594 C 96.304688 180.40625 97.957031 182.085938 98.480469 183.019531 C 98.566406 183.171875 98.695312 183.726562 98.804688 184.289062 C 98.804688 184.269531 98.808594 184.25 98.808594 184.230469 C 98.808594 184.25 98.804688 184.269531 98.804688 184.289062 C 98.792969 184.394531 98.78125 184.503906 98.765625 184.609375 C 98.769531 184.589844 98.769531 184.570312 98.773438 184.550781 C 98.578125 183.582031 98.507812 183.179688 97.6875 182.183594 C 97.511719 181.972656 97.277344 181.761719 97.074219 181.558594 L 95.351562 179.800781 C 95.144531 179.890625 95.210938 179.84375 95.046875 180.007812 C 94.976562 180.078125 94.929688 180.136719 94.875 180.207031 C 95.078125 180.496094 97.210938 182.789062 97.289062 183.152344 C 97.417969 183.253906 97.363281 183.148438 97.453125 183.398438 C 97.484375 183.484375 97.519531 183.664062 97.542969 183.761719 C 97.597656 183.984375 97.675781 184.253906 97.722656 184.445312 L 98.246094 186.863281 C 96.660156 191.585938 92.199219 194.984375 86.945312 194.984375 Z M 97.976562 178.546875 C 98.011719 178.632812 98.046875 178.722656 98.078125 178.8125 C 98.046875 178.722656 98.011719 178.632812 97.976562 178.546875 Z M 98.097656 178.859375 C 98.125 178.925781 98.148438 178.992188 98.171875 179.058594 C 98.148438 178.992188 98.125 178.925781 98.097656 178.859375 Z M 98.207031 179.152344 C 98.226562 179.214844 98.246094 179.273438 98.265625 179.332031 C 98.246094 179.273438 98.226562 179.214844 98.207031 179.152344 Z M 98.304688 179.449219 C 98.320312 179.496094 98.332031 179.542969 98.347656 179.589844 C 98.332031 179.542969 98.320312 179.496094 98.304688 179.449219 Z M 98.394531 179.746094 C 98.40625 179.785156 98.417969 179.828125 98.429688 179.871094 C 98.417969 179.828125 98.40625 179.785156 98.394531 179.746094 Z M 98.472656 180.03125 C 98.484375 180.066406 98.492188 180.105469 98.5 180.140625 C 98.492188 180.105469 98.484375 180.070312 98.472656 180.03125 Z M 98.546875 180.328125 C 98.554688 180.359375 98.5625 180.390625 98.570312 180.421875 C 98.5625 180.390625 98.554688 180.359375 98.546875 180.328125 Z M 98.613281 180.628906 C 98.621094 180.652344 98.625 180.679688 98.628906 180.703125 C 98.625 180.679688 98.621094 180.652344 98.613281 180.628906 Z M 98.671875 180.929688 C 98.675781 180.949219 98.679688 180.96875 98.683594 180.988281 C 98.679688 180.96875 98.675781 180.949219 98.671875 180.929688 Z M 98.722656 181.230469 C 98.726562 181.246094 98.726562 181.261719 98.730469 181.277344 C 98.726562 181.261719 98.726562 181.246094 98.722656 181.230469 Z M 98.765625 181.53125 C 98.765625 181.542969 98.769531 181.554688 98.769531 181.566406 C 98.769531 181.554688 98.765625 181.542969 98.765625 181.53125 Z M 98.800781 181.835938 C 98.800781 181.847656 98.800781 181.855469 98.804688 181.863281 C 98.804688 181.855469 98.800781 181.847656 98.800781 181.835938 Z M 98.828125 182.144531 C 98.828125 182.148438 98.828125 182.15625 98.828125 182.160156 C 98.828125 182.152344 98.828125 182.148438 98.828125 182.144531 Z M 98.847656 182.445312 C 98.847656 182.453125 98.847656 182.457031 98.847656 182.460938 C 98.847656 182.457031 98.847656 182.453125 98.847656 182.445312 Z M 98.808594 184.21875 L 98.808594 184.230469 Z M 98.738281 184.808594 C 98.734375 184.835938 98.730469 184.859375 98.726562 184.886719 C 98.730469 184.859375 98.734375 184.835938 98.738281 184.808594 Z M 98.691406 185.082031 C 98.6875 185.109375 98.683594 185.136719 98.679688 185.164062 C 98.683594 185.136719 98.6875 185.109375 98.691406 185.082031 Z M 98.644531 185.359375 C 98.636719 185.386719 98.632812 185.410156 98.628906 185.4375 C 98.632812 185.410156 98.636719 185.386719 98.644531 185.359375 Z M 98.585938 185.632812 C 98.582031 185.65625 98.574219 185.683594 98.570312 185.707031 C 98.574219 185.683594 98.582031 185.65625 98.585938 185.632812 Z M 98.523438 185.90625 C 98.515625 185.929688 98.511719 185.953125 98.507812 185.972656 C 98.511719 185.953125 98.515625 185.929688 98.523438 185.90625 Z M 98.453125 186.175781 C 98.449219 186.195312 98.441406 186.21875 98.4375 186.238281 C 98.441406 186.21875 98.449219 186.195312 98.453125 186.175781 Z M 98.378906 186.445312 C 98.371094 186.464844 98.367188 186.484375 98.359375 186.503906 C 98.367188 186.484375 98.371094 186.464844 98.378906 186.445312 Z M 98.296875 186.707031 C 98.292969 186.726562 98.285156 186.742188 98.28125 186.761719 C 98.285156 186.742188 98.292969 186.726562 98.296875 186.707031 Z M 100.820312 183.066406 C 100.820312 175.40625 94.609375 169.191406 86.945312 169.191406 C 79.28125 169.191406 73.070312 175.40625 73.070312 183.066406 C 73.070312 190.730469 79.28125 196.941406 86.945312 196.941406 C 94.609375 196.941406 100.820312 190.730469 100.820312 183.066406 Z M 90.515625 179.128906 C 89.933594 179.316406 89.699219 180.980469 89.835938 181.097656 L 86.160156 181.152344 C 86.203125 180.933594 86.234375 180.671875 86.417969 180.613281 C 86.675781 180.535156 86.597656 180.738281 86.84375 180.871094 C 86.921875 180.527344 86.695312 180.058594 86.960938 179.730469 C 87.167969 179.476562 87.871094 179.566406 88.277344 179.558594 C 89.359375 179.546875 89.3125 179.179688 89.824219 178.636719 C 89.96875 178.484375 90.332031 179.019531 90.515625 179.128906 Z M 98.351562 180.144531 C 97.988281 179.792969 97.703125 179.359375 97.40625 178.878906 C 97.296875 178.699219 97.230469 178.617188 97.121094 178.449219 C 96.917969 178.132812 97.128906 178.203125 96.964844 177.835938 L 96.109375 176.5625 C 96.046875 178.074219 95.859375 177.972656 96.355469 178.4375 Z M 81.984375 188.820312 L 82.105469 189.289062 C 84.34375 189.207031 85.914062 189.074219 88.714844 188.996094 Z M 81.695312 187.976562 L 81.800781 188.429688 L 86.640625 188.183594 C 86.714844 188.179688 86.773438 188.171875 86.851562 188.15625 C 86.996094 188.117188 86.945312 188.125 86.996094 188.101562 L 81.695312 187.980469 Z M 81.484375 187.125 L 81.546875 187.601562 C 82.183594 187.574219 86.996094 187.269531 87.007812 187.265625 Z M 81.484375 187.125 " fill-opacity="1" fill-rule="evenodd"/></g><path fill="#fe5000" d="M 82.761719 180.742188 C 83.71875 180.71875 84.683594 180.703125 85.640625 180.691406 C 85.730469 180.398438 85.882812 180.148438 86.222656 180.039062 C 86.242188 179.789062 86.3125 179.558594 86.488281 179.347656 C 86.90625 178.828125 87.683594 178.957031 88.269531 178.949219 C 88.429688 178.949219 88.75 178.945312 88.878906 178.824219 C 88.941406 178.765625 88.996094 178.6875 89.046875 178.621094 C 89.082031 178.578125 89.113281 178.535156 89.148438 178.492188 L 88.914062 178.289062 L 89.800781 177.90625 C 89.886719 177.871094 90.046875 177.734375 90.121094 177.671875 C 90.324219 177.503906 90.523438 177.335938 90.738281 177.183594 C 90.976562 177.015625 91.230469 176.863281 91.5 176.765625 C 91.617188 176.585938 91.75 176.421875 91.902344 176.269531 C 92.070312 176.105469 92.226562 175.9375 92.394531 175.773438 C 92.507812 175.664062 92.609375 175.523438 92.703125 175.398438 C 92.894531 175.144531 93.089844 174.886719 93.359375 174.703125 L 93.472656 174.625 L 93.613281 174.601562 C 93.824219 174.570312 94.085938 174.542969 94.367188 174.535156 C 92.351562 172.785156 89.734375 171.761719 86.945312 171.761719 C 80.699219 171.761719 75.636719 176.824219 75.636719 183.070312 C 75.636719 189.3125 80.699219 194.375 86.945312 194.375 C 88.863281 194.375 90.695312 193.894531 92.308594 193.023438 L 91.980469 193.007812 C 91.628906 192.992188 91.238281 192.996094 90.945312 192.773438 C 90.910156 192.746094 90.875 192.714844 90.84375 192.679688 L 90.925781 192.871094 L 90.074219 192.941406 C 89.539062 192.984375 89.097656 192.84375 88.773438 192.527344 L 88.90625 192.824219 L 88.035156 192.890625 C 87.597656 192.921875 87.175781 192.875 86.828125 192.582031 C 86.714844 192.488281 86.625 192.382812 86.542969 192.273438 L 86.761719 192.738281 L 85.902344 192.828125 C 85.425781 192.878906 84.949219 192.84375 84.605469 192.460938 C 84.546875 192.398438 84.492188 192.304688 84.433594 192.222656 L 84.722656 192.855469 L 83.710938 192.800781 C 82.976562 192.761719 82.652344 192.636719 82.222656 192.035156 C 80.605469 189.765625 79.71875 186.398438 80.121094 183.628906 C 80.1875 183.164062 80.324219 182.800781 80.445312 182.363281 C 80.472656 182.273438 80.480469 182.15625 80.488281 182.066406 C 80.535156 181.59375 80.617188 181.121094 81.089844 180.886719 C 81.269531 180.796875 81.5625 180.789062 81.761719 180.777344 C 82.09375 180.761719 82.429688 180.753906 82.761719 180.742188 Z M 82.761719 180.742188 " fill-opacity="1" fill-rule="evenodd"/><path fill="#fe5000" d="M 92.929688 184.460938 C 92.882812 184.890625 92.816406 185.320312 92.746094 185.75 C 92.636719 186.449219 92.519531 187.152344 92.402344 187.851562 C 92.3125 188.5 92.398438 189.324219 92.460938 189.976562 C 92.535156 190.761719 92.65625 191.648438 92.617188 192.429688 L 92.59375 192.863281 C 94.882812 191.542969 96.695312 189.429688 97.613281 186.828125 L 97.125 184.585938 C 97.066406 184.359375 97 184.132812 96.945312 183.902344 C 96.921875 183.808594 96.90625 183.695312 96.875 183.605469 L 96.738281 183.492188 L 96.703125 183.335938 C 96.625 183.199219 96.457031 182.996094 96.363281 182.882812 C 96.132812 182.597656 95.894531 182.320312 95.65625 182.046875 C 95.394531 181.742188 95.128906 181.441406 94.863281 181.136719 C 94.816406 181.085938 94.761719 181.027344 94.710938 180.96875 C 94.550781 181.132812 94.390625 181.292969 94.234375 181.457031 C 94.125 181.574219 94.019531 181.691406 93.902344 181.804688 C 93.640625 182.0625 93.378906 182.316406 93.121094 182.574219 C 92.976562 182.722656 92.828125 182.871094 92.683594 183.023438 C 92.683594 183.027344 92.683594 183.027344 92.679688 183.03125 C 92.683594 183.035156 92.6875 183.039062 92.691406 183.042969 C 93.027344 183.433594 92.976562 183.984375 92.925781 184.460938 Z M 92.929688 184.460938 " fill-opacity="1" fill-rule="evenodd"/><g fill="#000000" fill-opacity="1"><g transform="translate(106.085325, 189.803653)"><g><path d="M 11.742188 0 L 11.125 -3.722656 L 6.144531 -3.722656 L 6.144531 -17.390625 L 1.1875 -17.390625 L 1.1875 0 Z M 11.742188 0 "/></g></g></g><g fill="#000000" fill-opacity="1"><g transform="translate(118.302824, 189.803653)"><g><path d="M 1.1875 -17.390625 L 1.1875 0 L 6.144531 0 L 6.144531 -17.390625 Z M 1.1875 -17.390625 "/></g></g></g><g fill="#000000" fill-opacity="1"><g transform="translate(125.633324, 189.803653)"><g><path d="M 9.394531 -2.492188 C 8.777344 -2.492188 8.230469 -2.65625 7.757812 -3.011719 C 7.28125 -3.367188 6.902344 -3.84375 6.59375 -4.4375 C 6.285156 -5.003906 6.050781 -5.667969 5.90625 -6.429688 C 5.742188 -7.164062 5.667969 -7.921875 5.667969 -8.707031 C 5.667969 -9.464844 5.742188 -10.226562 5.90625 -10.960938 C 6.050781 -11.695312 6.285156 -12.359375 6.59375 -12.953125 C 6.902344 -13.523438 7.28125 -13.996094 7.757812 -14.351562 C 8.230469 -14.707031 8.777344 -14.898438 9.394531 -14.898438 C 9.84375 -14.898438 10.273438 -14.78125 10.652344 -14.589844 C 11.03125 -14.398438 11.363281 -14.1875 11.648438 -13.972656 C 11.957031 -13.6875 12.242188 -13.378906 12.503906 -13.046875 L 14.375 -14.898438 C 13.972656 -15.347656 13.5 -15.753906 12.976562 -16.132812 C 12.503906 -16.441406 11.933594 -16.726562 11.222656 -16.984375 C 10.507812 -17.246094 9.703125 -17.390625 8.777344 -17.390625 C 7.425781 -17.390625 6.238281 -17.128906 5.242188 -16.628906 C 4.246094 -16.132812 3.390625 -15.46875 2.726562 -14.660156 C 2.0625 -13.832031 1.542969 -12.90625 1.210938 -11.863281 C 0.878906 -10.816406 0.710938 -9.75 0.710938 -8.660156 C 0.710938 -7.566406 0.878906 -6.5 1.210938 -5.457031 C 1.542969 -4.414062 2.039062 -3.511719 2.703125 -2.703125 C 3.367188 -1.898438 4.222656 -1.234375 5.242188 -0.734375 C 6.238281 -0.238281 7.425781 0 8.777344 0 C 9.703125 0 10.507812 -0.117188 11.222656 -0.378906 C 11.933594 -0.617188 12.503906 -0.902344 12.976562 -1.234375 C 13.5 -1.589844 13.972656 -2.015625 14.375 -2.492188 L 12.503906 -4.339844 C 12.242188 -3.984375 11.957031 -3.675781 11.648438 -3.417969 C 11.363281 -3.179688 11.03125 -2.964844 10.652344 -2.777344 C 10.273438 -2.585938 9.84375 -2.492188 9.394531 -2.492188 Z M 9.394531 -2.492188 "/></g></g></g><g fill="#000000" fill-opacity="1"><g transform="translate(140.721345, 189.803653)"><g><path d="M 9.394531 -3.722656 C 9.394531 -3.390625 9.226562 -3.109375 8.921875 -2.871094 C 8.613281 -2.609375 8.160156 -2.492188 7.542969 -2.492188 C 7.023438 -2.492188 6.5 -2.585938 6.027344 -2.824219 C 5.550781 -3.035156 5.101562 -3.296875 4.695312 -3.628906 C 4.269531 -3.960938 3.914062 -4.316406 3.582031 -4.695312 C 3.25 -5.078125 2.964844 -5.457031 2.75 -5.789062 L 0.710938 -3.722656 C 1.28125 -3.011719 1.851562 -2.445312 2.417969 -1.96875 C 2.988281 -1.496094 3.582031 -1.113281 4.199219 -0.832031 C 4.792969 -0.523438 5.410156 -0.308594 6.074219 -0.191406 C 6.738281 -0.046875 7.425781 0 8.160156 0 C 9.253906 0 10.175781 -0.167969 10.960938 -0.5 C 11.742188 -0.832031 12.382812 -1.257812 12.90625 -1.777344 C 13.402344 -2.277344 13.785156 -2.824219 14.019531 -3.390625 C 14.257812 -3.960938 14.375 -4.484375 14.375 -4.957031 C 14.375 -5.882812 14.164062 -6.691406 13.734375 -7.378906 C 13.308594 -8.066406 12.761719 -8.660156 12.121094 -9.179688 C 11.457031 -9.703125 10.769531 -10.152344 10.011719 -10.558594 C 9.253906 -10.9375 8.5625 -11.316406 7.921875 -11.648438 C 7.257812 -11.980469 6.738281 -12.289062 6.308594 -12.621094 C 5.882812 -12.929688 5.667969 -13.285156 5.667969 -13.664062 C 5.667969 -13.972656 5.8125 -14.257812 6.144531 -14.519531 C 6.453125 -14.757812 6.925781 -14.898438 7.542969 -14.898438 C 8.066406 -14.898438 8.5625 -14.78125 9.039062 -14.566406 C 9.511719 -14.328125 9.964844 -14.066406 10.390625 -13.734375 C 10.792969 -13.402344 11.171875 -13.046875 11.503906 -12.667969 C 11.839844 -12.289062 12.097656 -11.933594 12.335938 -11.601562 L 14.375 -13.664062 C 13.238281 -15.015625 12.074219 -15.964844 10.890625 -16.535156 C 9.703125 -17.105469 8.375 -17.390625 6.925781 -17.390625 C 5.835938 -17.390625 4.886719 -17.199219 4.105469 -16.867188 C 3.320312 -16.535156 2.679688 -16.109375 2.183594 -15.609375 C 1.660156 -15.089844 1.304688 -14.542969 1.066406 -13.972656 C 0.832031 -13.402344 0.710938 -12.882812 0.710938 -12.429688 C 0.710938 -11.480469 0.925781 -10.675781 1.351562 -9.988281 C 1.777344 -9.300781 2.300781 -8.707031 2.964844 -8.183594 C 3.605469 -7.664062 4.292969 -7.210938 5.054688 -6.832031 C 5.8125 -6.429688 6.5 -6.074219 7.140625 -5.742188 C 7.78125 -5.410156 8.328125 -5.078125 8.753906 -4.769531 C 9.179688 -4.4375 9.394531 -4.105469 9.394531 -3.722656 Z M 9.394531 -3.722656 "/></g></g></g><g fill="#000000" fill-opacity="1"><g transform="translate(155.809367, 189.803653)"><g/></g></g><g fill="#000000" fill-opacity="1"><g transform="translate(162.926361, 189.803653)"><g><path d="M 8.992188 -4.957031 L 10.414062 0 L 15.371094 0 L 10.414062 -17.390625 L 5.433594 -17.390625 L 0.472656 0 L 4.199219 0 L 5.621094 -4.957031 Z M 8.28125 -7.449219 L 6.335938 -7.449219 L 7.308594 -10.867188 Z M 8.28125 -7.449219 "/></g></g></g><g fill="#000000" fill-opacity="1"><g transform="translate(178.773528, 189.803653)"><g><path d="M 16.25 -9.941406 L 8.777344 -9.941406 L 8.160156 -7.449219 L 11.269531 -7.449219 L 11.269531 -3.109375 C 11.125 -2.964844 10.960938 -2.871094 10.792969 -2.800781 C 10.628906 -2.703125 10.4375 -2.632812 10.226562 -2.585938 C 9.988281 -2.515625 9.726562 -2.492188 9.417969 -2.492188 C 8.894531 -2.492188 8.421875 -2.65625 8.019531 -2.988281 C 7.613281 -3.320312 7.28125 -3.75 7.023438 -4.316406 C 6.738281 -4.863281 6.546875 -5.503906 6.40625 -6.214844 C 6.261719 -6.925781 6.214844 -7.640625 6.214844 -8.398438 C 6.214844 -9.203125 6.285156 -9.988281 6.453125 -10.769531 C 6.59375 -11.53125 6.832031 -12.21875 7.164062 -12.835938 C 7.472656 -13.449219 7.875 -13.949219 8.351562 -14.328125 C 8.824219 -14.707031 9.371094 -14.898438 10.035156 -14.898438 C 10.652344 -14.898438 11.148438 -14.757812 11.554688 -14.519531 C 11.933594 -14.257812 12.265625 -13.972656 12.503906 -13.664062 C 12.785156 -13.285156 13 -12.882812 13.144531 -12.429688 L 14.992188 -14.28125 C 14.589844 -14.851562 14.117188 -15.347656 13.59375 -15.824219 C 13.117188 -16.203125 12.550781 -16.558594 11.863281 -16.890625 C 11.148438 -17.222656 10.34375 -17.390625 9.417969 -17.390625 C 7.949219 -17.390625 6.691406 -17.128906 5.597656 -16.605469 C 4.507812 -16.085938 3.582031 -15.421875 2.871094 -14.589844 C 2.160156 -13.734375 1.613281 -12.785156 1.257812 -11.742188 C 0.878906 -10.675781 0.710938 -9.585938 0.710938 -8.492188 C 0.710938 -7.402344 0.878906 -6.359375 1.210938 -5.335938 C 1.542969 -4.316406 2.0625 -3.417969 2.726562 -2.632812 C 3.390625 -1.828125 4.246094 -1.1875 5.242188 -0.710938 C 6.238281 -0.238281 7.425781 0 8.777344 0 C 9.464844 0 10.105469 -0.046875 10.699219 -0.140625 C 11.269531 -0.238281 11.8125 -0.378906 12.289062 -0.570312 C 12.761719 -0.734375 13.214844 -0.925781 13.59375 -1.164062 C 13.972656 -1.375 14.328125 -1.613281 14.613281 -1.851562 C 15.277344 -2.371094 15.824219 -3.011719 16.25 -3.722656 Z M 16.25 -9.941406 "/></g></g></g><g fill="#000000" fill-opacity="1"><g transform="translate(195.735698, 189.803653)"><g><path d="M 14.851562 0 L 11.863281 -8.351562 C 12.574219 -8.730469 13.167969 -9.226562 13.59375 -9.894531 C 14.019531 -10.558594 14.234375 -11.386719 14.234375 -12.429688 C 14.234375 -13.355469 14.042969 -14.140625 13.6875 -14.78125 C 13.308594 -15.394531 12.835938 -15.917969 12.21875 -16.296875 C 11.601562 -16.675781 10.867188 -16.960938 10.035156 -17.128906 C 9.203125 -17.292969 8.328125 -17.390625 7.402344 -17.390625 L 1.1875 -17.390625 L 1.1875 0 L 6.144531 0 L 6.144531 -7.449219 L 7.402344 -7.449219 L 9.867188 0 Z M 6.144531 -9.941406 L 6.144531 -14.898438 C 6.667969 -14.898438 7.117188 -14.828125 7.519531 -14.683594 C 7.921875 -14.542969 8.253906 -14.351562 8.515625 -14.117188 C 8.777344 -13.878906 8.96875 -13.617188 9.109375 -13.332031 C 9.253906 -13.023438 9.324219 -12.714844 9.324219 -12.40625 C 9.324219 -12.074219 9.253906 -11.765625 9.109375 -11.480469 C 8.96875 -11.199219 8.777344 -10.9375 8.515625 -10.699219 C 8.253906 -10.460938 7.921875 -10.296875 7.519531 -10.152344 C 7.117188 -10.011719 6.667969 -9.941406 6.144531 -9.941406 Z M 6.144531 -9.941406 "/></g></g></g><g fill="#000000" fill-opacity="1"><g transform="translate(211.298195, 189.803653)"><g><path d="M 12.359375 -3.722656 L 6.144531 -3.722656 L 6.144531 -6.832031 L 11.125 -6.832031 L 11.125 -10.558594 L 6.144531 -10.558594 L 6.144531 -13.664062 L 11.742188 -13.664062 L 11.125 -17.390625 L 1.1875 -17.390625 L 1.1875 0 L 11.742188 0 Z M 12.359375 -3.722656 "/></g></g></g><g fill="#000000" fill-opacity="1"><g transform="translate(224.844203, 189.803653)"><g><path d="M 16.25 -9.941406 L 8.777344 -9.941406 L 8.160156 -7.449219 L 11.269531 -7.449219 L 11.269531 -3.109375 C 11.125 -2.964844 10.960938 -2.871094 10.792969 -2.800781 C 10.628906 -2.703125 10.4375 -2.632812 10.226562 -2.585938 C 9.988281 -2.515625 9.726562 -2.492188 9.417969 -2.492188 C 8.894531 -2.492188 8.421875 -2.65625 8.019531 -2.988281 C 7.613281 -3.320312 7.28125 -3.75 7.023438 -4.316406 C 6.738281 -4.863281 6.546875 -5.503906 6.40625 -6.214844 C 6.261719 -6.925781 6.214844 -7.640625 6.214844 -8.398438 C 6.214844 -9.203125 6.285156 -9.988281 6.453125 -10.769531 C 6.59375 -11.53125 6.832031 -12.21875 7.164062 -12.835938 C 7.472656 -13.449219 7.875 -13.949219 8.351562 -14.328125 C 8.824219 -14.707031 9.371094 -14.898438 10.035156 -14.898438 C 10.652344 -14.898438 11.148438 -14.757812 11.554688 -14.519531 C 11.933594 -14.257812 12.265625 -13.972656 12.503906 -13.664062 C 12.785156 -13.285156 13 -12.882812 13.144531 -12.429688 L 14.992188 -14.28125 C 14.589844 -14.851562 14.117188 -15.347656 13.59375 -15.824219 C 13.117188 -16.203125 12.550781 -16.558594 11.863281 -16.890625 C 11.148438 -17.222656 10.34375 -17.390625 9.417969 -17.390625 C 7.949219 -17.390625 6.691406 -17.128906 5.597656 -16.605469 C 4.507812 -16.085938 3.582031 -15.421875 2.871094 -14.589844 C 2.160156 -13.734375 1.613281 -12.785156 1.257812 -11.742188 C 0.878906 -10.675781 0.710938 -9.585938 0.710938 -8.492188 C 0.710938 -7.402344 0.878906 -6.359375 1.210938 -5.335938 C 1.542969 -4.316406 2.0625 -3.417969 2.726562 -2.632812 C 3.390625 -1.828125 4.246094 -1.1875 5.242188 -0.710938 C 6.238281 -0.238281 7.425781 0 8.777344 0 C 9.464844 0 10.105469 -0.046875 10.699219 -0.140625 C 11.269531 -0.238281 11.8125 -0.378906 12.289062 -0.570312 C 12.761719 -0.734375 13.214844 -0.925781 13.59375 -1.164062 C 13.972656 -1.375 14.328125 -1.613281 14.613281 -1.851562 C 15.277344 -2.371094 15.824219 -3.011719 16.25 -3.722656 Z M 16.25 -9.941406 "/></g></g></g><g fill="#000000" fill-opacity="1"><g transform="translate(241.806373, 189.803653)"><g><path d="M 8.992188 -4.957031 L 10.414062 0 L 15.371094 0 L 10.414062 -17.390625 L 5.433594 -17.390625 L 0.472656 0 L 4.199219 0 L 5.621094 -4.957031 Z M 8.28125 -7.449219 L 6.335938 -7.449219 L 7.308594 -10.867188 Z M 8.28125 -7.449219 "/></g></g></g><g fill="#000000" fill-opacity="1"><g transform="translate(257.65354, 189.803653)"><g><path d="M 9.796875 -13.664062 L 14.140625 -13.664062 L 13.523438 -17.390625 L 1.089844 -17.390625 L 0.472656 -13.664062 L 4.816406 -13.664062 L 4.816406 0 L 9.796875 0 Z M 9.796875 -13.664062 "/></g></g></g><g fill="#000000" fill-opacity="1"><g transform="translate(272.267096, 189.803653)"><g><path d="M 12.359375 -3.722656 L 6.144531 -3.722656 L 6.144531 -6.832031 L 11.125 -6.832031 L 11.125 -10.558594 L 6.144531 -10.558594 L 6.144531 -13.664062 L 11.742188 -13.664062 L 11.125 -17.390625 L 1.1875 -17.390625 L 1.1875 0 L 11.742188 0 Z M 12.359375 -3.722656 "/></g></g></g></svg>