<?xml version="1.0" encoding="utf-8"?>
<!-- Generator: Adobe Illustrator 23.0.3, SVG Export Plug-In . SVG Version: 6.00 Build 0)  -->
<svg version="1.1" id="Layer_1" xmlns="http://www.w3.org/2000/svg" xmlns:xlink="http://www.w3.org/1999/xlink" x="0px" y="0px"
	 viewBox="0 0 500 85" style="enable-background:new 0 0 500 85;" xml:space="preserve">
<style type="text/css">
	.st0{clip-path:url(#SVGID_2_);}
	.st1{fill-rule:evenodd;clip-rule:evenodd;}
	.st2{fill-rule:evenodd;clip-rule:evenodd;fill:#FE5000;}
</style>
<g>
	<defs>
		<rect id="SVGID_1_" x="17.5" y="12.5" width="60" height="60"/>
	</defs>
	<clipPath id="SVGID_2_">
		<use xlink:href="#SVGID_1_"  style="overflow:visible;"/>
	</clipPath>
	<g class="st0">
		<path class="st1" d="M37.6,56.8c0.1,0.2,0.3,1,0.3,1c2.7,0,5.2-0.3,7.7-0.4c1.9-0.1,6.4,0.1,7.9-0.2L37.6,56.8z M47.5,68.3
			c-14.2,0-25.8-11.5-25.8-25.8c0-14.2,11.5-25.8,25.8-25.8c10.8,0,20,6.6,23.8,16c-0.2-0.4-0.3-0.7-0.5-1.1c-1-1.4,0.2,1.1-1.8-2
			l-1.6-2.6c-0.2-0.5-0.1-0.5-0.5-0.9c-0.9-0.8-3.6-0.7-4.9-0.5c-0.7,0.5-1.3,1.5-1.9,2.2c-0.4,0.4-0.6,0.6-1.1,1.1
			c-0.3,0.3-0.6,0.7-0.8,1c0.6,0.1,0.7-0.1,1,0.3c-2-0.7-4,2-5.2,2.5c0.7,0.6,0.8,0.3,1.2,1.4c0.1-0.1,0.9-0.6,1.2-0.9
			c0.4-0.3,0.7-0.6,1.2-0.9c-2.3,2.3-3.2,2.8-3.7,6.1c1-0.2,1.4,0,2.1,0.5l5.3-7L57.9,37c-1.9,2.8-1.5,1.7-1.3,3.4
			c-0.5-0.8-1.7-2.4-2.8-1.8c-1.7,0-18,0.1-18.5,0.4c-0.7,0.3-0.5,1.6-0.7,2.4c-0.3,0.9-0.5,1.5-0.7,2.6c-0.8,5.7,1,12.6,4.3,17.2
			c0.6,0.8,0.9,1,2.2,1.1L40,61l2.7,0c0.8,0.7,0.5,1.5,2.4,1.3l-0.6-1.3l2.8,0.1c0.7,0.8,0.8,1.4,2.5,1.3l-0.6-1.3l2.7,0.1
			c0.4,0.8,1,1.4,2.3,1.3l-0.6-1.3c0.8,0,2.2-0.2,2.7,0.4c0.8,0.9,0.4,1,2.1,1c0.1-2.6-0.8-7.3-0.5-10c2.2-13.3,1.1-6.9-1.3-12.2
			c0.9,1.5,0.5,0.8,1.6,1.8c0-0.2,3.2-3.3,3.3-3.4c0.3-0.3,0.4-0.5,0.7-0.7c0.8-0.8,2.3-2.2,2.8-3.1c-0.2-0.3-0.5-0.6-0.7-1
			c-0.6-0.8-1.9-2.7,0.5-2.7c-0.9,0.6-1.3,0.9-0.4,2.1c0.5,0.6,1.2,1.2,1.7,1.7c1.6,1.6,5.2,5.2,6.3,7.2c0.2,0.3,0.5,1.5,0.7,2.7
			c0,0,0-0.1,0-0.1c0,0,0,0.1,0,0.1c0,0.2-0.1,0.5-0.1,0.7c0,0,0-0.1,0-0.1c-0.4-2.1-0.6-3-2.3-5.1c-0.4-0.5-0.9-0.9-1.3-1.3
			l-3.7-3.8c-0.4,0.2-0.3,0.1-0.7,0.5c-0.2,0.2-0.3,0.3-0.4,0.4c0.4,0.6,5,5.6,5.2,6.4c0.3,0.2,0.2,0,0.4,0.5
			c0.1,0.2,0.1,0.6,0.2,0.8c0.1,0.5,0.3,1.1,0.4,1.5l1.1,5.2C68.5,60.9,58.9,68.3,47.5,68.3L47.5,68.3z M71.3,32.7
			c0.1,0.2,0.2,0.4,0.2,0.6C71.5,33.1,71.4,32.9,71.3,32.7z M71.6,33.4c0.1,0.1,0.1,0.3,0.2,0.4C71.7,33.7,71.7,33.6,71.6,33.4z
			 M71.8,34.1c0,0.1,0.1,0.3,0.1,0.4C71.9,34.3,71.9,34.2,71.8,34.1z M72.1,34.7c0,0.1,0.1,0.2,0.1,0.3
			C72.1,34.9,72.1,34.8,72.1,34.7z M72.3,35.3c0,0.1,0,0.2,0.1,0.3C72.3,35.5,72.3,35.4,72.3,35.3z M72.4,36c0,0.1,0,0.2,0.1,0.2
			C72.5,36.1,72.4,36,72.4,36z M72.6,36.6c0,0.1,0,0.1,0,0.2C72.6,36.7,72.6,36.7,72.6,36.6z M72.7,37.2c0,0.1,0,0.1,0,0.2
			C72.8,37.4,72.7,37.3,72.7,37.2z M72.9,37.9c0,0,0,0.1,0,0.1C72.9,38,72.9,37.9,72.9,37.9z M73,38.5c0,0,0,0.1,0,0.1
			C73,38.6,73,38.6,73,38.5z M73.1,39.2C73.1,39.2,73.1,39.2,73.1,39.2C73.1,39.2,73.1,39.2,73.1,39.2z M73.1,39.9
			C73.1,39.9,73.1,39.9,73.1,39.9C73.1,39.9,73.1,39.9,73.1,39.9z M73.2,40.5C73.2,40.5,73.2,40.5,73.2,40.5
			C73.2,40.5,73.2,40.5,73.2,40.5z M73.2,41.2C73.2,41.2,73.2,41.2,73.2,41.2C73.2,41.2,73.2,41.2,73.2,41.2z M73.2,45L73.2,45
			L73.2,45z M73,46.3c0,0.1,0,0.1,0,0.2C73,46.4,73,46.3,73,46.3z M72.9,46.9c0,0.1,0,0.1,0,0.2C72.9,47,72.9,46.9,72.9,46.9z
			 M72.8,47.5c0,0.1,0,0.1,0,0.2C72.8,47.6,72.8,47.5,72.8,47.5z M72.7,48.1c0,0.1,0,0.1,0,0.2C72.6,48.2,72.7,48.1,72.7,48.1z
			 M72.5,48.7c0,0,0,0.1,0,0.1C72.5,48.8,72.5,48.7,72.5,48.7z M72.4,49.2c0,0,0,0.1,0,0.1C72.4,49.3,72.4,49.3,72.4,49.2z
			 M72.2,49.8c0,0,0,0.1,0,0.1C72.2,49.9,72.2,49.9,72.2,49.8z M72,50.4c0,0,0,0.1,0,0.1C72,50.5,72,50.4,72,50.4z M77.5,42.5
			c0-16.6-13.4-30-30-30c-16.6,0-30,13.4-30,30s13.4,30,30,30C64.1,72.5,77.5,59.1,77.5,42.5z M55.2,34c-1.3,0.4-1.8,4-1.5,4.3
			l-7.9,0.1c0.1-0.5,0.2-1,0.6-1.2c0.6-0.2,0.4,0.3,0.9,0.5c0.2-0.7-0.3-1.8,0.3-2.5c0.4-0.5,2-0.4,2.8-0.4c2.3,0,2.2-0.8,3.4-2
			C54,32.6,54.8,33.8,55.2,34z M72.2,36.2c-0.8-0.8-1.4-1.7-2-2.7c-0.2-0.4-0.4-0.6-0.6-0.9c-0.4-0.7,0-0.5-0.3-1.3l-1.8-2.8
			c-0.1,3.3-0.5,3,0.5,4.1L72.2,36.2z M36.8,55l0.3,1c4.8-0.2,8.2-0.5,14.3-0.6L36.8,55z M36.1,53.1l0.2,1l10.5-0.5
			c0.2,0,0.3,0,0.5-0.1c0.3-0.1,0.2-0.1,0.3-0.1L36.1,53.1z M35.7,51.3l0.1,1c1.4-0.1,11.8-0.7,11.8-0.7L35.7,51.3z"/>
	</g>
</g>
<path class="st2" d="M38.5,37.5c2.1-0.1,4.2-0.1,6.2-0.1c0.2-0.6,0.5-1.2,1.3-1.4c0-0.5,0.2-1,0.6-1.5c0.9-1.1,2.6-0.8,3.9-0.9
	c0.3,0,1,0,1.3-0.3c0.1-0.1,0.3-0.3,0.4-0.4c0.1-0.1,0.1-0.2,0.2-0.3l-0.5-0.4l1.9-0.8c0.2-0.1,0.5-0.4,0.7-0.5
	c0.4-0.4,0.9-0.7,1.3-1.1c0.5-0.4,1.1-0.7,1.6-0.9c0.3-0.4,0.5-0.7,0.9-1.1c0.4-0.4,0.7-0.7,1.1-1.1c0.2-0.2,0.5-0.5,0.7-0.8
	c0.4-0.6,0.8-1.1,1.4-1.5l0.3-0.2l0.3,0c0.5-0.1,1-0.1,1.6-0.1c-4.4-3.8-10-6-16-6C34,18.1,23.1,29,23.1,42.5C23.1,56,34,67,47.5,67
	c4.1,0,8.1-1,11.6-2.9l-0.7,0c-0.8,0-1.6,0-2.2-0.5c-0.1-0.1-0.2-0.1-0.2-0.2l0.2,0.4l-1.8,0.1c-1.2,0.1-2.1-0.2-2.8-0.9l0.3,0.6
	l-1.9,0.1c-0.9,0.1-1.9,0-2.6-0.7c-0.2-0.2-0.4-0.4-0.6-0.7l0.5,1l-1.8,0.2c-1,0.1-2.1,0-2.8-0.8c-0.1-0.1-0.3-0.3-0.4-0.5h0
	l0.6,1.4l-2.2-0.1c-1.6-0.1-2.3-0.4-3.2-1.7c-3.5-4.9-5.4-12.2-4.6-18.2c0.1-1,0.4-1.8,0.7-2.7c0.1-0.2,0.1-0.4,0.1-0.6
	c0.1-1,0.3-2,1.3-2.6c0.4-0.2,1-0.2,1.5-0.2C37,37.5,37.7,37.5,38.5,37.5z"/>
<path class="st2" d="M60.4,37.2c-0.1,0.9-0.3,1.9-0.4,2.8c-0.2,1.5-0.5,3-0.7,4.5c-0.2,1.4,0,3.2,0.1,4.6c0.2,1.7,0.4,3.6,0.3,5.3
	l0,0.9c5-2.9,8.9-7.4,10.8-13.1l-1.1-4.8c-0.1-0.5-0.3-1-0.4-1.5c-0.1-0.2-0.1-0.5-0.2-0.6l-0.3-0.2l-0.1-0.3
	c-0.2-0.3-0.5-0.7-0.7-1c-0.5-0.6-1-1.2-1.5-1.8c-0.6-0.7-1.1-1.3-1.7-2c-0.1-0.1-0.2-0.2-0.3-0.4c-0.3,0.3-0.7,0.7-1,1.1
	c-0.2,0.3-0.5,0.5-0.7,0.8c-0.6,0.6-1.1,1.1-1.7,1.7c-0.3,0.3-0.6,0.6-0.9,1c0,0,0,0,0,0c0,0,0,0,0,0C60.7,35,60.5,36.2,60.4,37.2
	L60.4,37.2z"/>
<g>
	<g transform="translate(64.63162, 209.836169)">
		<g>
			<path d="M46.6-148.7l-1.3-8H34.7v-29.2H24.1v37.1H46.6z"/>
		</g>
	</g>
</g>
<g>
	<g transform="translate(84.200115, 209.836169)">
		<g>
			<path d="M30.6-185.9v37.1h10.6v-37.1H30.6z"/>
		</g>
	</g>
</g>
<g>
	<g transform="translate(95.941215, 209.836169)">
		<g>
			<path d="M52-154.1c-1.3,0-2.5-0.4-3.5-1.1c-1-0.8-1.8-1.8-2.5-3c-0.7-1.2-1.2-2.6-1.5-4.3c-0.4-1.6-0.5-3.2-0.5-4.9
				c0-1.6,0.2-3.2,0.5-4.8c0.3-1.6,0.8-3,1.5-4.3c0.7-1.2,1.5-2.2,2.5-3c1-0.8,2.2-1.2,3.5-1.2c1,0,1.9,0.3,2.7,0.7
				c0.8,0.4,1.5,0.9,2.1,1.3c0.7,0.6,1.3,1.3,1.8,2l4-4c-0.9-1-1.9-1.8-3-2.6c-1-0.7-2.2-1.3-3.8-1.8c-1.5-0.6-3.2-0.9-5.2-0.9
				c-2.9,0-5.4,0.6-7.6,1.6c-2.1,1.1-4,2.5-5.4,4.2c-1.4,1.8-2.5,3.8-3.2,6c-0.7,2.2-1.1,4.5-1.1,6.8c0,2.3,0.4,4.6,1.1,6.8
				c0.7,2.2,1.8,4.2,3.2,5.9c1.4,1.7,3.2,3.1,5.4,4.2c2.1,1.1,4.7,1.6,7.6,1.6c2,0,3.7-0.3,5.2-0.8c1.5-0.5,2.7-1.1,3.8-1.8
				c1.1-0.8,2.1-1.7,3-2.7l-4-3.9c-0.6,0.8-1.2,1.4-1.8,2c-0.6,0.5-1.3,1-2.1,1.4C53.9-154.3,53-154.1,52-154.1z"/>
		</g>
	</g>
</g>
<g>
	<g transform="translate(120.107346, 209.836169)">
		<g>
			<path d="M60.1-156.7c0,0.7-0.4,1.3-1,1.8c-0.7,0.6-1.6,0.8-2.9,0.8c-1.1,0-2.2-0.2-3.2-0.7c-1-0.5-2-1-2.8-1.7
				c-0.9-0.7-1.7-1.5-2.4-2.3c-0.7-0.8-1.3-1.6-1.8-2.3l-4.4,4.4c1.2,1.5,2.4,2.7,3.6,3.7c1.2,1,2.5,1.8,3.8,2.4
				c1.3,0.7,2.6,1.1,4,1.4c1.4,0.3,2.9,0.4,4.5,0.4c2.3,0,4.3-0.4,6-1.1c1.7-0.7,3-1.6,4.2-2.7c1.1-1.1,1.9-2.2,2.4-3.4
				c0.5-1.2,0.8-2.3,0.8-3.3c0-2-0.5-3.7-1.4-5.2c-0.9-1.5-2.1-2.7-3.4-3.8c-1.4-1.1-2.9-2.1-4.5-2.9c-1.6-0.8-3.1-1.6-4.5-2.3
				c-1.4-0.7-2.5-1.4-3.4-2.1c-0.9-0.7-1.4-1.4-1.4-2.2c0-0.7,0.3-1.3,1-1.8c0.7-0.5,1.7-0.8,3-0.8c1.1,0,2.2,0.3,3.2,0.7
				c1,0.5,2,1.1,2.9,1.8c0.9,0.7,1.7,1.5,2.4,2.3c0.7,0.8,1.3,1.6,1.8,2.3l4.4-4.4c-2.4-2.9-4.9-4.9-7.4-6.1
				c-2.5-1.2-5.4-1.8-8.5-1.8c-2.3,0-4.4,0.4-6,1.1c-1.7,0.7-3,1.6-4.1,2.7c-1.1,1.1-1.9,2.3-2.4,3.5c-0.5,1.2-0.8,2.3-0.8,3.3
				c0,2,0.5,3.8,1.4,5.2c0.9,1.5,2,2.7,3.4,3.8c1.4,1.1,2.8,2.1,4.5,2.9c1.6,0.9,3.1,1.6,4.5,2.3c1.4,0.7,2.5,1.4,3.4,2.1
				C59.6-158.2,60.1-157.5,60.1-156.7z"/>
		</g>
	</g>
</g>
<g>
	<g transform="translate(144.273478, 209.836169)">
	</g>
</g>
<g>
	<g transform="translate(155.672604, 209.836169)">
		<g>
			<path d="M71.1-159.3l3,10.6h10.6l-10.6-37.1H63.5l-10.6,37.1h8l3-10.6H71.1z M69.6-164.7h-4.2l2.1-7.3L69.6-164.7z"/>
		</g>
	</g>
</g>
<g>
	<g transform="translate(181.054641, 209.836169)">
		<g>
			<path d="M95.1-170h-16l-1.3,5.3h6.6v9.3c-0.3,0.3-0.7,0.5-1,0.7c-0.4,0.2-0.8,0.4-1.2,0.5c-0.5,0.2-1.1,0.2-1.7,0.2
				c-1.1,0-2.1-0.4-3-1.1c-0.9-0.7-1.6-1.6-2.1-2.8c-0.6-1.2-1-2.5-1.3-4.1c-0.3-1.5-0.4-3-0.4-4.7c0-1.7,0.2-3.4,0.5-5.1
				c0.3-1.6,0.8-3.1,1.5-4.4c0.7-1.3,1.5-2.4,2.5-3.2c1-0.8,2.2-1.2,3.6-1.2c1.3,0,2.4,0.3,3.2,0.8c0.8,0.6,1.5,1.2,2,1.8
				c0.6,0.8,1.1,1.7,1.4,2.6l4-4c-0.9-1.2-1.9-2.3-3-3.3c-1-0.8-2.2-1.6-3.7-2.3c-1.5-0.7-3.2-1.1-5.2-1.1c-3.1,0-5.8,0.6-8.2,1.7
				c-2.3,1.1-4.3,2.5-5.8,4.3c-1.5,1.8-2.7,3.8-3.4,6.1c-0.8,2.3-1.2,4.6-1.2,6.9s0.4,4.6,1.1,6.7c0.7,2.2,1.8,4.1,3.2,5.8
				c1.4,1.7,3.2,3.1,5.4,4.1c2.1,1,4.7,1.5,7.6,1.5c1.5,0,2.8-0.1,4.1-0.3c1.2-0.2,2.4-0.5,3.4-0.9c1-0.4,2-0.8,2.8-1.3
				c0.8-0.5,1.6-1,2.2-1.5c1.4-1.1,2.6-2.5,3.5-4V-170z"/>
		</g>
	</g>
</g>
<g>
	<g transform="translate(208.222536, 209.836169)">
		<g>
			<path d="M101.1-148.7l-6.4-17.8c1.5-0.8,2.8-1.9,3.7-3.3c0.9-1.4,1.4-3.2,1.4-5.4c0-2-0.4-3.7-1.2-5c-0.8-1.3-1.8-2.4-3.1-3.2
				c-1.3-0.8-2.9-1.4-4.7-1.8c-1.8-0.4-3.6-0.6-5.6-0.6H71.9v37.1h10.6v-15.9h2.7l5.3,15.9H101.1z M82.5-170v-10.6
				c1.1,0,2.1,0.2,2.9,0.5c0.9,0.3,1.6,0.7,2.1,1.2c0.6,0.5,1,1.1,1.3,1.7c0.3,0.7,0.5,1.3,0.5,2c0,0.7-0.2,1.4-0.5,2
				c-0.3,0.6-0.7,1.2-1.3,1.7c-0.6,0.5-1.3,0.9-2.1,1.2C84.6-170.1,83.6-170,82.5-170z"/>
		</g>
	</g>
</g>
<g>
	<g transform="translate(233.148619, 209.836169)">
		<g>
			<path d="M104.1-156.7H90.8v-6.6h10.6v-8H90.8v-6.6h12l-1.3-8H80.2v37.1h22.6L104.1-156.7z"/>
		</g>
	</g>
</g>
<g>
	<g transform="translate(254.844946, 209.836169)">
		<g>
			<path d="M119.7-170h-16l-1.3,5.3h6.6v9.3c-0.3,0.3-0.7,0.5-1,0.7c-0.4,0.2-0.8,0.4-1.2,0.5c-0.5,0.2-1.1,0.2-1.7,0.2
				c-1.1,0-2.1-0.4-3-1.1c-0.9-0.7-1.6-1.6-2.1-2.8c-0.6-1.2-1-2.5-1.3-4.1c-0.3-1.5-0.4-3-0.4-4.7c0-1.7,0.2-3.4,0.5-5.1
				c0.3-1.6,0.8-3.1,1.5-4.4c0.7-1.3,1.5-2.4,2.5-3.2c1-0.8,2.2-1.2,3.6-1.2c1.3,0,2.4,0.3,3.2,0.8c0.8,0.6,1.5,1.2,2,1.8
				c0.6,0.8,1.1,1.7,1.4,2.6l4-4c-0.9-1.2-1.9-2.3-3-3.3c-1-0.8-2.2-1.6-3.7-2.3c-1.5-0.7-3.2-1.1-5.2-1.1c-3.1,0-5.8,0.6-8.2,1.7
				c-2.3,1.1-4.3,2.5-5.8,4.3c-1.5,1.8-2.7,3.8-3.4,6.1c-0.8,2.3-1.2,4.6-1.2,6.9s0.4,4.6,1.1,6.7c0.7,2.2,1.8,4.1,3.2,5.8
				c1.4,1.7,3.2,3.1,5.4,4.1c2.1,1,4.7,1.5,7.6,1.5c1.5,0,2.8-0.1,4.1-0.3c1.2-0.2,2.4-0.5,3.4-0.9c1-0.4,2-0.8,2.8-1.3
				c0.8-0.5,1.6-1,2.2-1.5c1.4-1.1,2.6-2.5,3.5-4V-170z"/>
		</g>
	</g>
</g>
<g>
	<g transform="translate(282.01284, 209.836169)">
		<g>
			<path d="M113.2-159.3l3,10.6h10.6l-10.6-37.1h-10.6L95-148.7h8l3-10.6H113.2z M111.7-164.7h-4.2l2.1-7.3L111.7-164.7z"/>
		</g>
	</g>
</g>
<g>
	<g transform="translate(307.394877, 209.836169)">
		<g>
			<path d="M123.4-177.9h9.3l-1.3-8h-26.6l-1.3,8h9.3v29.2h10.6V-177.9z"/>
		</g>
	</g>
</g>
<g>
	<g transform="translate(330.801074, 209.836169)">
		<g>
			<path d="M136.7-156.7h-13.3v-6.6H134v-8h-10.6v-6.6h12l-1.3-8h-21.2v37.1h22.6L136.7-156.7z"/>
		</g>
	</g>
</g>
</svg>
