<?xml version="1.0" encoding="utf-8"?>
<!-- Generator: Adobe Illustrator 23.0.3, SVG Export Plug-In . SVG Version: 6.00 Build 0)  -->
<svg version="1.1" id="Layer_1" xmlns="http://www.w3.org/2000/svg" xmlns:xlink="http://www.w3.org/1999/xlink" x="0px" y="0px"
	 viewBox="0 0 500 500" style="enable-background:new 0 0 500 500;" xml:space="preserve">
<style type="text/css">
	.st0{clip-path:url(#SVGID_2_);}
	.st1{fill-rule:evenodd;clip-rule:evenodd;}
	.st2{fill-rule:evenodd;clip-rule:evenodd;fill:#FE5000;}
</style>
<g>
	<defs>
		<rect id="SVGID_1_" x="17.5" y="235.6" width="60" height="60"/>
	</defs>
	<clipPath id="SVGID_2_">
		<use xlink:href="#SVGID_1_"  style="overflow:visible;"/>
	</clipPath>
	<g class="st0">
		<path class="st1" d="M37.6,279.9c0.1,0.2,0.3,1,0.3,1c2.7,0,5.2-0.3,7.7-0.4c1.9-0.1,6.4,0.1,7.9-0.2L37.6,279.9z M47.5,291.4
			c-14.2,0-25.8-11.5-25.8-25.8c0-14.2,11.5-25.8,25.8-25.8c10.8,0,20,6.6,23.8,16c-0.2-0.4-0.3-0.7-0.5-1.1c-1-1.4,0.2,1.1-1.8-2
			l-1.6-2.6c-0.2-0.5-0.1-0.5-0.5-0.9c-0.9-0.8-3.6-0.7-4.9-0.5c-0.7,0.5-1.3,1.5-1.9,2.2c-0.4,0.4-0.6,0.6-1.1,1.1
			c-0.3,0.3-0.6,0.7-0.8,1c0.6,0.1,0.7-0.1,1,0.3c-2-0.7-4,2-5.2,2.5c0.7,0.6,0.8,0.3,1.2,1.4c0.1-0.1,0.9-0.6,1.2-0.9
			c0.4-0.3,0.7-0.6,1.2-0.9c-2.3,2.3-3.2,2.8-3.7,6.1c1-0.2,1.4,0,2.1,0.5l5.3-7l-3.5,5.3c-1.9,2.8-1.5,1.7-1.3,3.4
			c-0.5-0.8-1.7-2.4-2.8-1.8c-1.7,0-18,0.1-18.5,0.4c-0.7,0.3-0.5,1.6-0.7,2.4c-0.3,0.9-0.5,1.5-0.7,2.6c-0.8,5.7,1,12.6,4.3,17.2
			c0.6,0.8,0.9,1,2.2,1.1l-0.6-1.3l2.7,0c0.8,0.7,0.5,1.5,2.4,1.3l-0.6-1.3l2.8,0.1c0.7,0.8,0.8,1.4,2.5,1.3l-0.6-1.3l2.7,0.1
			c0.4,0.8,1,1.4,2.3,1.3l-0.6-1.3c0.8,0,2.2-0.2,2.7,0.4c0.8,0.9,0.4,1,2.1,1c0.1-2.6-0.8-7.3-0.5-10c2.2-13.3,1.1-6.9-1.3-12.2
			c0.9,1.5,0.5,0.8,1.6,1.8c0-0.2,3.2-3.3,3.3-3.4c0.3-0.3,0.4-0.5,0.7-0.7c0.8-0.8,2.3-2.2,2.8-3.1c-0.2-0.3-0.5-0.6-0.7-1
			c-0.6-0.8-1.9-2.7,0.5-2.7c-0.9,0.6-1.3,0.9-0.4,2.1c0.5,0.6,1.2,1.2,1.7,1.7c1.6,1.6,5.2,5.2,6.3,7.2c0.2,0.3,0.5,1.5,0.7,2.7
			c0,0,0-0.1,0-0.1c0,0,0,0.1,0,0.1c0,0.2-0.1,0.5-0.1,0.7c0,0,0-0.1,0-0.1c-0.4-2.1-0.6-3-2.3-5.1c-0.4-0.5-0.9-0.9-1.3-1.3
			l-3.7-3.8c-0.4,0.2-0.3,0.1-0.7,0.5c-0.2,0.2-0.3,0.3-0.4,0.4c0.4,0.6,5,5.6,5.2,6.4c0.3,0.2,0.2,0,0.4,0.5
			c0.1,0.2,0.1,0.6,0.2,0.8c0.1,0.5,0.3,1.1,0.4,1.5l1.1,5.2C68.5,284,58.9,291.4,47.5,291.4L47.5,291.4z M71.3,255.8
			c0.1,0.2,0.2,0.4,0.2,0.6C71.5,256.2,71.4,256,71.3,255.8z M71.6,256.5c0.1,0.1,0.1,0.3,0.2,0.4C71.7,256.8,71.7,256.7,71.6,256.5
			z M71.8,257.2c0,0.1,0.1,0.3,0.1,0.4C71.9,257.4,71.9,257.3,71.8,257.2z M72.1,257.8c0,0.1,0.1,0.2,0.1,0.3
			C72.1,258,72.1,257.9,72.1,257.8z M72.3,258.4c0,0.1,0,0.2,0.1,0.3C72.3,258.6,72.3,258.5,72.3,258.4z M72.4,259.1
			c0,0.1,0,0.2,0.1,0.2C72.5,259.2,72.4,259.1,72.4,259.1z M72.6,259.7c0,0.1,0,0.1,0,0.2C72.6,259.8,72.6,259.8,72.6,259.7z
			 M72.7,260.3c0,0.1,0,0.1,0,0.2C72.8,260.5,72.7,260.4,72.7,260.3z M72.9,261c0,0,0,0.1,0,0.1C72.9,261.1,72.9,261,72.9,261z
			 M73,261.6c0,0,0,0.1,0,0.1C73,261.7,73,261.7,73,261.6z M73.1,262.3C73.1,262.3,73.1,262.3,73.1,262.3
			C73.1,262.3,73.1,262.3,73.1,262.3z M73.1,263C73.1,263,73.1,263,73.1,263C73.1,263,73.1,263,73.1,263z M73.2,263.6
			C73.2,263.6,73.2,263.6,73.2,263.6C73.2,263.6,73.2,263.6,73.2,263.6z M73.2,264.3C73.2,264.3,73.2,264.3,73.2,264.3
			C73.2,264.3,73.2,264.3,73.2,264.3z M73.2,268.1L73.2,268.1L73.2,268.1z M73,269.4c0,0.1,0,0.1,0,0.2C73,269.5,73,269.4,73,269.4z
			 M72.9,270c0,0.1,0,0.1,0,0.2C72.9,270.1,72.9,270,72.9,270z M72.8,270.6c0,0.1,0,0.1,0,0.2C72.8,270.7,72.8,270.6,72.8,270.6z
			 M72.7,271.2c0,0.1,0,0.1,0,0.2C72.6,271.3,72.7,271.2,72.7,271.2z M72.5,271.8c0,0,0,0.1,0,0.1C72.5,271.9,72.5,271.8,72.5,271.8
			z M72.4,272.3c0,0,0,0.1,0,0.1C72.4,272.4,72.4,272.4,72.4,272.3z M72.2,272.9c0,0,0,0.1,0,0.1C72.2,273,72.2,273,72.2,272.9z
			 M72,273.5c0,0,0,0.1,0,0.1C72,273.6,72,273.5,72,273.5z M77.5,265.6c0-16.6-13.4-30-30-30c-16.6,0-30,13.4-30,30s13.4,30,30,30
			C64.1,295.6,77.5,282.2,77.5,265.6z M55.2,257.1c-1.3,0.4-1.8,4-1.5,4.3l-7.9,0.1c0.1-0.5,0.2-1,0.6-1.2c0.6-0.2,0.4,0.3,0.9,0.5
			c0.2-0.7-0.3-1.8,0.3-2.5c0.4-0.5,2-0.4,2.8-0.4c2.3,0,2.2-0.8,3.4-2C54,255.7,54.8,256.9,55.2,257.1z M72.2,259.3
			c-0.8-0.8-1.4-1.7-2-2.7c-0.2-0.4-0.4-0.6-0.6-0.9c-0.4-0.7,0-0.5-0.3-1.3l-1.8-2.8c-0.1,3.3-0.5,3,0.5,4.1L72.2,259.3z
			 M36.8,278.1l0.3,1c4.8-0.2,8.2-0.5,14.3-0.6L36.8,278.1z M36.1,276.2l0.2,1l10.5-0.5c0.2,0,0.3,0,0.5-0.1
			c0.3-0.1,0.2-0.1,0.3-0.1L36.1,276.2z M35.7,274.4l0.1,1c1.4-0.1,11.8-0.7,11.8-0.7L35.7,274.4z"/>
	</g>
</g>
<path class="st2" d="M38.5,260.6c2.1-0.1,4.2-0.1,6.2-0.1c0.2-0.6,0.5-1.2,1.3-1.4c0-0.5,0.2-1,0.6-1.5c0.9-1.1,2.6-0.8,3.9-0.9
	c0.3,0,1,0,1.3-0.3c0.1-0.1,0.3-0.3,0.4-0.4c0.1-0.1,0.1-0.2,0.2-0.3l-0.5-0.4l1.9-0.8c0.2-0.1,0.5-0.4,0.7-0.5
	c0.4-0.4,0.9-0.7,1.3-1.1c0.5-0.4,1.1-0.7,1.6-0.9c0.3-0.4,0.5-0.7,0.9-1.1c0.4-0.4,0.7-0.7,1.1-1.1c0.2-0.2,0.5-0.5,0.7-0.8
	c0.4-0.6,0.8-1.1,1.4-1.5l0.3-0.2l0.3,0c0.5-0.1,1-0.1,1.6-0.1c-4.4-3.8-10-6-16-6c-13.5,0-24.4,10.9-24.4,24.4
	c0,13.5,10.9,24.5,24.4,24.5c4.1,0,8.1-1,11.6-2.9l-0.7,0c-0.8,0-1.6,0-2.2-0.5c-0.1-0.1-0.2-0.1-0.2-0.2l0.2,0.4l-1.8,0.1
	c-1.2,0.1-2.1-0.2-2.8-0.9l0.3,0.6l-1.9,0.1c-0.9,0.1-1.9,0-2.6-0.7c-0.2-0.2-0.4-0.4-0.6-0.7l0.5,1l-1.8,0.2c-1,0.1-2.1,0-2.8-0.8
	c-0.1-0.1-0.3-0.3-0.4-0.5h0l0.6,1.4l-2.2-0.1c-1.6-0.1-2.3-0.4-3.2-1.7c-3.5-4.9-5.4-12.2-4.6-18.2c0.1-1,0.4-1.8,0.7-2.7
	c0.1-0.2,0.1-0.4,0.1-0.6c0.1-1,0.3-2,1.3-2.6c0.4-0.2,1-0.2,1.5-0.2C37,260.6,37.7,260.6,38.5,260.6z"/>
<path class="st2" d="M60.4,268.6c-0.1,0.9-0.3,1.9-0.4,2.8c-0.2,1.5-0.5,3-0.7,4.5c-0.2,1.4,0,3.2,0.1,4.6c0.2,1.7,0.4,3.6,0.3,5.3
	l0,0.9c5-2.9,8.9-7.4,10.8-13.1l-1.1-4.8c-0.1-0.5-0.3-1-0.4-1.5c-0.1-0.2-0.1-0.5-0.2-0.6l-0.3-0.2l-0.1-0.3
	c-0.2-0.3-0.5-0.7-0.7-1c-0.5-0.6-1-1.2-1.5-1.8c-0.6-0.7-1.1-1.3-1.7-2c-0.1-0.1-0.2-0.2-0.3-0.4c-0.3,0.3-0.7,0.7-1,1.1
	c-0.2,0.3-0.5,0.5-0.7,0.8c-0.6,0.6-1.1,1.1-1.7,1.7c-0.3,0.3-0.6,0.6-0.9,1c0,0,0,0,0,0c0,0,0,0,0,0
	C60.7,266.4,60.5,267.6,60.4,268.6L60.4,268.6z"/>
<g>
	<g transform="translate(64.63162, 209.836169)">
		<g>
			<path d="M46.6,69.9l-1.3-8H34.7V32.8H24.1v37.1H46.6z"/>
		</g>
	</g>
</g>
<g>
	<g transform="translate(84.200115, 209.836169)">
		<g>
			<path d="M30.6,32.8v37.1h10.6V32.8H30.6z"/>
		</g>
	</g>
</g>
<g>
	<g transform="translate(95.941215, 209.836169)">
		<g>
			<path d="M52,64.6c-1.3,0-2.5-0.4-3.5-1.1c-1-0.8-1.8-1.8-2.5-3c-0.7-1.2-1.2-2.6-1.5-4.3c-0.4-1.6-0.5-3.2-0.5-4.9
				c0-1.6,0.2-3.2,0.5-4.8c0.3-1.6,0.8-3,1.5-4.3c0.7-1.2,1.5-2.2,2.5-3c1-0.8,2.2-1.2,3.5-1.2c1,0,1.9,0.3,2.7,0.7
				c0.8,0.4,1.5,0.9,2.1,1.3c0.7,0.6,1.3,1.3,1.8,2l4-4c-0.9-1-1.9-1.8-3-2.6c-1-0.7-2.2-1.3-3.8-1.8c-1.5-0.6-3.2-0.9-5.2-0.9
				c-2.9,0-5.4,0.6-7.6,1.6c-2.1,1.1-4,2.5-5.4,4.2c-1.4,1.8-2.5,3.8-3.2,6c-0.7,2.2-1.1,4.5-1.1,6.8c0,2.3,0.4,4.6,1.1,6.8
				c0.7,2.2,1.8,4.2,3.2,5.9c1.4,1.7,3.2,3.1,5.4,4.2c2.1,1.1,4.7,1.6,7.6,1.6c2,0,3.7-0.3,5.2-0.8c1.5-0.5,2.7-1.1,3.8-1.8
				c1.1-0.8,2.1-1.7,3-2.7l-4-3.9c-0.6,0.8-1.2,1.4-1.8,2c-0.6,0.5-1.3,1-2.1,1.4C53.9,64.4,53,64.6,52,64.6z"/>
		</g>
	</g>
</g>
<g>
	<g transform="translate(120.107346, 209.836169)">
		<g>
			<path d="M60.1,62c0,0.7-0.4,1.3-1,1.8c-0.7,0.6-1.6,0.8-2.9,0.8c-1.1,0-2.2-0.2-3.2-0.7c-1-0.5-2-1-2.8-1.7
				c-0.9-0.7-1.7-1.5-2.4-2.3c-0.7-0.8-1.3-1.6-1.8-2.3L41.6,62c1.2,1.5,2.4,2.7,3.6,3.7c1.2,1,2.5,1.8,3.8,2.4
				c1.3,0.7,2.6,1.1,4,1.4c1.4,0.3,2.9,0.4,4.5,0.4c2.3,0,4.3-0.4,6-1.1c1.7-0.7,3-1.6,4.2-2.7c1.1-1.1,1.9-2.2,2.4-3.4
				c0.5-1.2,0.8-2.3,0.8-3.3c0-2-0.5-3.7-1.4-5.2s-2.1-2.7-3.4-3.8c-1.4-1.1-2.9-2.1-4.5-2.9c-1.6-0.8-3.1-1.6-4.5-2.3
				c-1.4-0.7-2.5-1.4-3.4-2.1c-0.9-0.7-1.4-1.4-1.4-2.2c0-0.7,0.3-1.3,1-1.8c0.7-0.5,1.7-0.8,3-0.8c1.1,0,2.2,0.3,3.2,0.7
				c1,0.5,2,1.1,2.9,1.8c0.9,0.7,1.7,1.5,2.4,2.3c0.7,0.8,1.3,1.6,1.8,2.3l4.4-4.4c-2.4-2.9-4.9-4.9-7.4-6.1
				c-2.5-1.2-5.4-1.8-8.5-1.8c-2.3,0-4.4,0.4-6,1.1c-1.7,0.7-3,1.6-4.1,2.7c-1.1,1.1-1.9,2.3-2.4,3.5c-0.5,1.2-0.8,2.3-0.8,3.3
				c0,2,0.5,3.8,1.4,5.2c0.9,1.5,2,2.7,3.4,3.8c1.4,1.1,2.8,2.1,4.5,2.9c1.6,0.9,3.1,1.6,4.5,2.3c1.4,0.7,2.5,1.4,3.4,2.1
				C59.6,60.5,60.1,61.2,60.1,62z"/>
		</g>
	</g>
</g>
<g>
	<g transform="translate(144.273478, 209.836169)">
	</g>
</g>
<g>
	<g transform="translate(155.672604, 209.836169)">
		<g>
			<path d="M71.1,59.4l3,10.6h10.6L74.1,32.8H63.5L52.9,69.9h8l3-10.6H71.1z M69.6,54h-4.2l2.1-7.3L69.6,54z"/>
		</g>
	</g>
</g>
<g>
	<g transform="translate(181.054641, 209.836169)">
		<g>
			<path d="M95.1,48.7h-16L77.8,54h6.6v9.3c-0.3,0.3-0.7,0.5-1,0.7c-0.4,0.2-0.8,0.4-1.2,0.5c-0.5,0.2-1.1,0.2-1.7,0.2
				c-1.1,0-2.1-0.4-3-1.1c-0.9-0.7-1.6-1.6-2.1-2.8c-0.6-1.2-1-2.5-1.3-4.1c-0.3-1.5-0.4-3-0.4-4.7c0-1.7,0.2-3.4,0.5-5.1
				c0.3-1.6,0.8-3.1,1.5-4.4c0.7-1.3,1.5-2.4,2.5-3.2c1-0.8,2.2-1.2,3.6-1.2c1.3,0,2.4,0.3,3.2,0.8c0.8,0.6,1.5,1.2,2,1.8
				c0.6,0.8,1.1,1.7,1.4,2.6l4-4c-0.9-1.2-1.9-2.3-3-3.3c-1-0.8-2.2-1.6-3.7-2.3c-1.5-0.7-3.2-1.1-5.2-1.1c-3.1,0-5.8,0.6-8.2,1.7
				C70,35.6,68,37,66.5,38.8c-1.5,1.8-2.7,3.8-3.4,6.1c-0.8,2.3-1.2,4.6-1.2,6.9c0,2.3,0.4,4.6,1.1,6.7c0.7,2.2,1.8,4.1,3.2,5.8
				c1.4,1.7,3.2,3.1,5.4,4.1c2.1,1,4.7,1.5,7.6,1.5c1.5,0,2.8-0.1,4.1-0.3c1.2-0.2,2.4-0.5,3.4-0.9c1-0.4,2-0.8,2.8-1.3
				c0.8-0.5,1.6-1,2.2-1.5c1.4-1.1,2.6-2.5,3.5-4V48.7z"/>
		</g>
	</g>
</g>
<g>
	<g transform="translate(208.222536, 209.836169)">
		<g>
			<path d="M101.1,69.9l-6.4-17.8c1.5-0.8,2.8-1.9,3.7-3.3c0.9-1.4,1.4-3.2,1.4-5.4c0-2-0.4-3.7-1.2-5c-0.8-1.3-1.8-2.4-3.1-3.2
				c-1.3-0.8-2.9-1.4-4.7-1.8c-1.8-0.4-3.6-0.6-5.6-0.6H71.9v37.1h10.6V54h2.7l5.3,15.9H101.1z M82.5,48.7V38.1
				c1.1,0,2.1,0.2,2.9,0.5c0.9,0.3,1.6,0.7,2.1,1.2c0.6,0.5,1,1.1,1.3,1.7c0.3,0.7,0.5,1.3,0.5,2c0,0.7-0.2,1.4-0.5,2
				c-0.3,0.6-0.7,1.2-1.3,1.7c-0.6,0.5-1.3,0.9-2.1,1.2C84.6,48.6,83.6,48.7,82.5,48.7z"/>
		</g>
	</g>
</g>
<g>
	<g transform="translate(233.148619, 209.836169)">
		<g>
			<path d="M104.1,62H90.8v-6.6h10.6v-8H90.8v-6.6h12l-1.3-8H80.2v37.1h22.6L104.1,62z"/>
		</g>
	</g>
</g>
<g>
	<g transform="translate(254.844946, 209.836169)">
		<g>
			<path d="M119.7,48.7h-16l-1.3,5.3h6.6v9.3c-0.3,0.3-0.7,0.5-1,0.7c-0.4,0.2-0.8,0.4-1.2,0.5c-0.5,0.2-1.1,0.2-1.7,0.2
				c-1.1,0-2.1-0.4-3-1.1c-0.9-0.7-1.6-1.6-2.1-2.8c-0.6-1.2-1-2.5-1.3-4.1c-0.3-1.5-0.4-3-0.4-4.7c0-1.7,0.2-3.4,0.5-5.1
				c0.3-1.6,0.8-3.1,1.5-4.4c0.7-1.3,1.5-2.4,2.5-3.2c1-0.8,2.2-1.2,3.6-1.2c1.3,0,2.4,0.3,3.2,0.8c0.8,0.6,1.5,1.2,2,1.8
				c0.6,0.8,1.1,1.7,1.4,2.6l4-4c-0.9-1.2-1.9-2.3-3-3.3c-1-0.8-2.2-1.6-3.7-2.3c-1.5-0.7-3.2-1.1-5.2-1.1c-3.1,0-5.8,0.6-8.2,1.7
				c-2.3,1.1-4.3,2.5-5.8,4.3c-1.5,1.8-2.7,3.8-3.4,6.1c-0.8,2.3-1.2,4.6-1.2,6.9c0,2.3,0.4,4.6,1.1,6.7c0.7,2.2,1.8,4.1,3.2,5.8
				c1.4,1.7,3.2,3.1,5.4,4.1c2.1,1,4.7,1.5,7.6,1.5c1.5,0,2.8-0.1,4.1-0.3c1.2-0.2,2.4-0.5,3.4-0.9c1-0.4,2-0.8,2.8-1.3
				c0.8-0.5,1.6-1,2.2-1.5c1.4-1.1,2.6-2.5,3.5-4V48.7z"/>
		</g>
	</g>
</g>
<g>
	<g transform="translate(282.01284, 209.836169)">
		<g>
			<path d="M113.2,59.4l3,10.6h10.6l-10.6-37.1h-10.6L95,69.9h8l3-10.6H113.2z M111.7,54h-4.2l2.1-7.3L111.7,54z"/>
		</g>
	</g>
</g>
<g>
	<g transform="translate(307.394877, 209.836169)">
		<g>
			<path d="M123.4,40.8h9.3l-1.3-8h-26.6l-1.3,8h9.3v29.2h10.6V40.8z"/>
		</g>
	</g>
</g>
<g>
	<g transform="translate(330.801074, 209.836169)">
		<g>
			<path d="M136.7,62h-13.3v-6.6H134v-8h-10.6v-6.6h12l-1.3-8h-21.2v37.1h22.6L136.7,62z"/>
		</g>
	</g>
</g>
</svg>
