<svg id="visual" viewBox="0 0 900 300" width="900" height="300" xmlns="http://www.w3.org/2000/svg" xmlns:xlink="http://www.w3.org/1999/xlink" version="1.1"><path d="M0 31L13.7 41.2C27.3 51.3 54.7 71.7 82 86.7C109.3 101.7 136.7 111.3 163.8 113.7C191 116 218 111 245.2 103C272.3 95 299.7 84 327 72.8C354.3 61.7 381.7 50.3 409 56.8C436.3 63.3 463.7 87.7 491 89.8C518.3 92 545.7 72 573 71.8C600.3 71.7 627.7 91.3 654.8 94C682 96.7 709 82.3 736.2 72.8C763.3 63.3 790.7 58.7 818 55.8C845.3 53 872.7 52 886.3 51.5L900 51L900 301L886.3 301C872.7 301 845.3 301 818 301C790.7 301 763.3 301 736.2 301C709 301 682 301 654.8 301C627.7 301 600.3 301 573 301C545.7 301 518.3 301 491 301C463.7 301 436.3 301 409 301C381.7 301 354.3 301 327 301C299.7 301 272.3 301 245.2 301C218 301 191 301 163.8 301C136.7 301 109.3 301 82 301C54.7 301 27.3 301 13.7 301L0 301Z" fill="#fa7268"></path><path d="M0 147L13.7 144.3C27.3 141.7 54.7 136.3 82 139.7C109.3 143 136.7 155 163.8 150.8C191 146.7 218 126.3 245.2 113.5C272.3 100.7 299.7 95.3 327 96.5C354.3 97.7 381.7 105.3 409 114.8C436.3 124.3 463.7 135.7 491 145C518.3 154.3 545.7 161.7 573 155.2C600.3 148.7 627.7 128.3 654.8 126C682 123.7 709 139.3 736.2 137.3C763.3 135.3 790.7 115.7 818 105.3C845.3 95 872.7 94 886.3 93.5L900 93L900 301L886.3 301C872.7 301 845.3 301 818 301C790.7 301 763.3 301 736.2 301C709 301 682 301 654.8 301C627.7 301 600.3 301 573 301C545.7 301 518.3 301 491 301C463.7 301 436.3 301 409 301C381.7 301 354.3 301 327 301C299.7 301 272.3 301 245.2 301C218 301 191 301 163.8 301C136.7 301 109.3 301 82 301C54.7 301 27.3 301 13.7 301L0 301Z" fill="#f4714e"></path><path d="M0 184L13.7 184.2C27.3 184.3 54.7 184.7 82 187.8C109.3 191 136.7 197 163.8 190.8C191 184.7 218 166.3 245.2 168.2C272.3 170 299.7 192 327 200.7C354.3 209.3 381.7 204.7 409 195C436.3 185.3 463.7 170.7 491 164C518.3 157.3 545.7 158.7 573 166.8C600.3 175 627.7 190 654.8 196.5C682 203 709 201 736.2 200.3C763.3 199.7 790.7 200.3 818 193.2C845.3 186 872.7 171 886.3 163.5L900 156L900 301L886.3 301C872.7 301 845.3 301 818 301C790.7 301 763.3 301 736.2 301C709 301 682 301 654.8 301C627.7 301 600.3 301 573 301C545.7 301 518.3 301 491 301C463.7 301 436.3 301 409 301C381.7 301 354.3 301 327 301C299.7 301 272.3 301 245.2 301C218 301 191 301 163.8 301C136.7 301 109.3 301 82 301C54.7 301 27.3 301 13.7 301L0 301Z" fill="#e97331"></path><path d="M0 237L13.7 236.3C27.3 235.7 54.7 234.3 82 231.3C109.3 228.3 136.7 223.7 163.8 228C191 232.3 218 245.7 245.2 250.8C272.3 256 299.7 253 327 254C354.3 255 381.7 260 409 259C436.3 258 463.7 251 491 250.2C518.3 249.3 545.7 254.7 573 254.8C600.3 255 627.7 250 654.8 247C682 244 709 243 736.2 241.8C763.3 240.7 790.7 239.3 818 243.7C845.3 248 872.7 258 886.3 263L900 268L900 301L886.3 301C872.7 301 845.3 301 818 301C790.7 301 763.3 301 736.2 301C709 301 682 301 654.8 301C627.7 301 600.3 301 573 301C545.7 301 518.3 301 491 301C463.7 301 436.3 301 409 301C381.7 301 354.3 301 327 301C299.7 301 272.3 301 245.2 301C218 301 191 301 163.8 301C136.7 301 109.3 301 82 301C54.7 301 27.3 301 13.7 301L0 301Z" fill="#d97706"></path></svg>