<svg id="visual" viewBox="0 0 900 300" width="900" height="300" xmlns="http://www.w3.org/2000/svg" xmlns:xlink="http://www.w3.org/1999/xlink" version="1.1"><path d="M0 173L25 161.2C50 149.3 100 125.7 150 125.7C200 125.7 250 149.3 300 154C350 158.7 400 144.3 450 148.7C500 153 550 176 600 180.8C650 185.7 700 172.3 750 160.8C800 149.3 850 139.7 875 134.8L900 130L900 301L875 301C850 301 800 301 750 301C700 301 650 301 600 301C550 301 500 301 450 301C400 301 350 301 300 301C250 301 200 301 150 301C100 301 50 301 25 301L0 301Z" fill="#d97706"></path></svg>