<svg id="visual" viewBox="0 0 900 200" width="900" height="200" xmlns="http://www.w3.org/2000/svg" xmlns:xlink="http://www.w3.org/1999/xlink" version="1.1"><path d="M0 94L8.3 82.7C16.7 71.3 33.3 48.7 50 42.8C66.7 37 83.3 48 100 54.8C116.7 61.7 133.3 64.3 150 71C166.7 77.7 183.3 88.3 200 93.3C216.7 98.3 233.3 97.7 250 93C266.7 88.3 283.3 79.7 300 72.3C316.7 65 333.3 59 350 53.5C366.7 48 383.3 43 400 50C416.7 57 433.3 76 450 76.8C466.7 77.7 483.3 60.3 500 59.2C516.7 58 533.3 73 550 71.2C566.7 69.3 583.3 50.7 600 50.5C616.7 50.3 633.3 68.7 650 71.8C666.7 75 683.3 63 700 58.8C716.7 54.7 733.3 58.3 750 63.7C766.7 69 783.3 76 800 71.5C816.7 67 833.3 51 850 49.3C866.7 47.7 883.3 60.3 891.7 66.7L900 73L900 201L891.7 201C883.3 201 866.7 201 850 201C833.3 201 816.7 201 800 201C783.3 201 766.7 201 750 201C733.3 201 716.7 201 700 201C683.3 201 666.7 201 650 201C633.3 201 616.7 201 600 201C583.3 201 566.7 201 550 201C533.3 201 516.7 201 500 201C483.3 201 466.7 201 450 201C433.3 201 416.7 201 400 201C383.3 201 366.7 201 350 201C333.3 201 316.7 201 300 201C283.3 201 266.7 201 250 201C233.3 201 216.7 201 200 201C183.3 201 166.7 201 150 201C133.3 201 116.7 201 100 201C83.3 201 66.7 201 50 201C33.3 201 16.7 201 8.3 201L0 201Z" fill="#fbf1e6"></path><path d="M0 74L8.3 80.5C16.7 87 33.3 100 50 108.2C66.7 116.3 83.3 119.7 100 119.5C116.7 119.3 133.3 115.7 150 111.7C166.7 107.7 183.3 103.3 200 101.5C216.7 99.7 233.3 100.3 250 98.2C266.7 96 283.3 91 300 86.8C316.7 82.7 333.3 79.3 350 83.7C366.7 88 383.3 100 400 100.5C416.7 101 433.3 90 450 88.2C466.7 86.3 483.3 93.7 500 102.5C516.7 111.3 533.3 121.7 550 128.2C566.7 134.7 583.3 137.3 600 129.2C616.7 121 633.3 102 650 97.7C666.7 93.3 683.3 103.7 700 102C716.7 100.3 733.3 86.7 750 87.8C766.7 89 783.3 105 800 116.2C816.7 127.3 833.3 133.7 850 133.7C866.7 133.7 883.3 127.3 891.7 124.2L900 121L900 201L891.7 201C883.3 201 866.7 201 850 201C833.3 201 816.7 201 800 201C783.3 201 766.7 201 750 201C733.3 201 716.7 201 700 201C683.3 201 666.7 201 650 201C633.3 201 616.7 201 600 201C583.3 201 566.7 201 550 201C533.3 201 516.7 201 500 201C483.3 201 466.7 201 450 201C433.3 201 416.7 201 400 201C383.3 201 366.7 201 350 201C333.3 201 316.7 201 300 201C283.3 201 266.7 201 250 201C233.3 201 216.7 201 200 201C183.3 201 166.7 201 150 201C133.3 201 116.7 201 100 201C83.3 201 66.7 201 50 201C33.3 201 16.7 201 8.3 201L0 201Z" fill="#eeb57b"></path><path d="M0 157L8.3 157.7C16.7 158.3 33.3 159.7 50 162.5C66.7 165.3 83.3 169.7 100 172C116.7 174.3 133.3 174.7 150 172.5C166.7 170.3 183.3 165.7 200 165.8C216.7 166 233.3 171 250 165.7C266.7 160.3 283.3 144.7 300 137C316.7 129.3 333.3 129.7 350 135.7C366.7 141.7 383.3 153.3 400 152.8C416.7 152.3 433.3 139.7 450 141C466.7 142.3 483.3 157.7 500 156.7C516.7 155.7 533.3 138.3 550 136C566.7 133.7 583.3 146.3 600 147.3C616.7 148.3 633.3 137.7 650 136.3C666.7 135 683.3 143 700 150.2C716.7 157.3 733.3 163.7 750 165.8C766.7 168 783.3 166 800 159.3C816.7 152.7 833.3 141.3 850 142.2C866.7 143 883.3 156 891.7 162.5L900 169L900 201L891.7 201C883.3 201 866.7 201 850 201C833.3 201 816.7 201 800 201C783.3 201 766.7 201 750 201C733.3 201 716.7 201 700 201C683.3 201 666.7 201 650 201C633.3 201 616.7 201 600 201C583.3 201 566.7 201 550 201C533.3 201 516.7 201 500 201C483.3 201 466.7 201 450 201C433.3 201 416.7 201 400 201C383.3 201 366.7 201 350 201C333.3 201 316.7 201 300 201C283.3 201 266.7 201 250 201C233.3 201 216.7 201 200 201C183.3 201 166.7 201 150 201C133.3 201 116.7 201 100 201C83.3 201 66.7 201 50 201C33.3 201 16.7 201 8.3 201L0 201Z" fill="#d97706"></path></svg>