<svg id="visual" viewBox="0 0 900 200" width="900" height="200" xmlns="http://www.w3.org/2000/svg" xmlns:xlink="http://www.w3.org/1999/xlink" version="1.1"><path d="M0 149L7.8 145.5C15.7 142 31.3 135 47.2 134C63 133 79 138 94.8 139.8C110.7 141.7 126.3 140.3 142 143.5C157.7 146.7 173.3 154.3 189.2 158.3C205 162.3 221 162.7 236.8 160C252.7 157.3 268.3 151.7 284.2 149.3C300 147 316 148 331.8 147.7C347.7 147.3 363.3 145.7 379 146.7C394.7 147.7 410.3 151.3 426.2 150.8C442 150.3 458 145.7 473.8 142C489.7 138.3 505.3 135.7 521 138.5C536.7 141.3 552.3 149.7 568.2 151.2C584 152.7 600 147.3 615.8 148C631.7 148.7 647.3 155.3 663.2 158.5C679 161.7 695 161.3 710.8 159.2C726.7 157 742.3 153 758 152C773.7 151 789.3 153 805.2 155.2C821 157.3 837 159.7 852.8 159.8C868.7 160 884.3 158 892.2 157L900 156L900 201L892.2 201C884.3 201 868.7 201 852.8 201C837 201 821 201 805.2 201C789.3 201 773.7 201 758 201C742.3 201 726.7 201 710.8 201C695 201 679 201 663.2 201C647.3 201 631.7 201 615.8 201C600 201 584 201 568.2 201C552.3 201 536.7 201 521 201C505.3 201 489.7 201 473.8 201C458 201 442 201 426.2 201C410.3 201 394.7 201 379 201C363.3 201 347.7 201 331.8 201C316 201 300 201 284.2 201C268.3 201 252.7 201 236.8 201C221 201 205 201 189.2 201C173.3 201 157.7 201 142 201C126.3 201 110.7 201 94.8 201C79 201 63 201 47.2 201C31.3 201 15.7 201 7.8 201L0 201Z" fill="#fa7268"></path><path d="M0 153L7.8 155.8C15.7 158.7 31.3 164.3 47.2 163.5C63 162.7 79 155.3 94.8 151.7C110.7 148 126.3 148 142 151.2C157.7 154.3 173.3 160.7 189.2 160.8C205 161 221 155 236.8 156.8C252.7 158.7 268.3 168.3 284.2 168.7C300 169 316 160 331.8 155.5C347.7 151 363.3 151 379 152C394.7 153 410.3 155 426.2 157C442 159 458 161 473.8 163.7C489.7 166.3 505.3 169.7 521 170.7C536.7 171.7 552.3 170.3 568.2 170.5C584 170.7 600 172.3 615.8 171.7C631.7 171 647.3 168 663.2 167.5C679 167 695 169 710.8 168.7C726.7 168.3 742.3 165.7 758 162.3C773.7 159 789.3 155 805.2 156.2C821 157.3 837 163.7 852.8 163.5C868.7 163.3 884.3 156.7 892.2 153.3L900 150L900 201L892.2 201C884.3 201 868.7 201 852.8 201C837 201 821 201 805.2 201C789.3 201 773.7 201 758 201C742.3 201 726.7 201 710.8 201C695 201 679 201 663.2 201C647.3 201 631.7 201 615.8 201C600 201 584 201 568.2 201C552.3 201 536.7 201 521 201C505.3 201 489.7 201 473.8 201C458 201 442 201 426.2 201C410.3 201 394.7 201 379 201C363.3 201 347.7 201 331.8 201C316 201 300 201 284.2 201C268.3 201 252.7 201 236.8 201C221 201 205 201 189.2 201C173.3 201 157.7 201 142 201C126.3 201 110.7 201 94.8 201C79 201 63 201 47.2 201C31.3 201 15.7 201 7.8 201L0 201Z" fill="#ef7240"></path><path d="M0 168L7.8 169.7C15.7 171.3 31.3 174.7 47.2 177.3C63 180 79 182 94.8 181.2C110.7 180.3 126.3 176.7 142 176.2C157.7 175.7 173.3 178.3 189.2 181C205 183.7 221 186.3 236.8 185.7C252.7 185 268.3 181 284.2 180.8C300 180.7 316 184.3 331.8 183.2C347.7 182 363.3 176 379 175.8C394.7 175.7 410.3 181.3 426.2 183C442 184.7 458 182.3 473.8 179.3C489.7 176.3 505.3 172.7 521 174.8C536.7 177 552.3 185 568.2 186.5C584 188 600 183 615.8 181.8C631.7 180.7 647.3 183.3 663.2 182.2C679 181 695 176 710.8 173.3C726.7 170.7 742.3 170.3 758 172.8C773.7 175.3 789.3 180.7 805.2 180.5C821 180.3 837 174.7 852.8 172.5C868.7 170.3 884.3 171.7 892.2 172.3L900 173L900 201L892.2 201C884.3 201 868.7 201 852.8 201C837 201 821 201 805.2 201C789.3 201 773.7 201 758 201C742.3 201 726.7 201 710.8 201C695 201 679 201 663.2 201C647.3 201 631.7 201 615.8 201C600 201 584 201 568.2 201C552.3 201 536.7 201 521 201C505.3 201 489.7 201 473.8 201C458 201 442 201 426.2 201C410.3 201 394.7 201 379 201C363.3 201 347.7 201 331.8 201C316 201 300 201 284.2 201C268.3 201 252.7 201 236.8 201C221 201 205 201 189.2 201C173.3 201 157.7 201 142 201C126.3 201 110.7 201 94.8 201C79 201 63 201 47.2 201C31.3 201 15.7 201 7.8 201L0 201Z" fill="#d97706"></path></svg>